<?xml version="1.0" encoding="utf-8"?>
<svg viewBox="0 0 800 240" xmlns="http://www.w3.org/2000/svg" xmlns:bx="https://boxy-svg.com">
  <rect x="-3.504" y="-3.322" width="807.316" height="244.807" style="fill: rgb(229, 229, 229);"/>
  <g style="" transform="matrix(2.758523, 0, 0, 2.758523, -1146.543945, -194.321182)">
    <g id="Group_35" data-name="Group 35" transform="matrix(1, 0, 0, 1, -227.463089, -1265.105957)">
      <path id="Path_92" data-name="Path 92" d="M798.022,1369.359v23.226h.034c.353,4.555,7.685,8.2,16.7,8.2s16.347-3.641,16.7-8.2h.033v-23.226Z" stroke="#231f20" stroke-linecap="round" stroke-linejoin="round" stroke-width="4" style="fill: rgb(64, 43, 71);"/>
      <path id="Path_93" data-name="Path 93" d="M843.415,1373.207l-29.225,14.6-29.227-14.6,29.227-14.6Z" stroke="#231f20" stroke-linecap="round" stroke-linejoin="round" stroke-width="4" style="fill: rgb(113, 77, 135);"/>
      <line id="Line_40" data-name="Line 40" y1="19.235" transform="translate(784.964 1374.361)" fill="#fff" stroke="#231f20" stroke-linecap="round" stroke-linejoin="round" stroke-width="4"/>
    </g>
  </g>
  <g style="" transform="matrix(1.019361, 0, 0, 1.019361, -291.87793, -3.587525)">
    <ellipse style="stroke: rgb(0, 0, 0); fill: rgb(255, 255, 255); stroke-width: 4px;" cx="570.542" cy="215.617" rx="20.763" ry="20.763"/>
    <ellipse style="stroke: rgb(0, 0, 0); stroke-width: 4px; fill: rgb(255, 255, 255);" cx="427.281" cy="80.595" rx="20.763" ry="20.763"/>
    <ellipse style="stroke: rgb(0, 0, 0); stroke-width: 4px; fill: rgb(255, 255, 255);" cx="494.166" cy="24.874" rx="20.763" ry="20.763"/>
    <ellipse style="stroke: rgb(0, 0, 0); stroke-width: 4px; fill: rgb(255, 255, 255);" cx="502.324" cy="119.24" rx="20.763" ry="20.763"/>
    <ellipse style="stroke: rgb(0, 0, 0); stroke-width: 4px; fill: rgb(255, 255, 255);" cx="414.335" cy="213.157" rx="20.763" ry="20.763"/>
    <ellipse style="stroke: rgb(0, 0, 0); stroke-width: 4px; fill: rgb(255, 255, 255);" cx="306.45" cy="119.447" rx="20.763" ry="20.763"/>
    <ellipse style="stroke: rgb(0, 0, 0); stroke-width: 4px; fill: rgb(255, 255, 255);" cx="361.822" cy="48.777" rx="20.763" ry="20.763"/>
    <ellipse style="stroke: rgb(0, 0, 0); stroke-width: 4px; fill: rgb(255, 255, 255);" cx="581.451" cy="77.285" rx="20.763" ry="20.763"/>
    <ellipse style="stroke: rgb(0, 0, 0); stroke-width: 4px; fill: rgb(255, 255, 255);" cx="389.768" cy="152.728" rx="20.763" ry="20.763"/>
    <ellipse style="stroke: rgb(0, 0, 0); stroke-width: 4px; fill: rgb(255, 255, 255);" cx="584.908" cy="157.196" rx="20.763" ry="20.763"/>
    <ellipse style="stroke: rgb(0, 0, 0); stroke-width: 4px; fill: rgb(255, 255, 255);" cx="645.091" cy="33.808" rx="20.763" ry="20.763"/>
    <ellipse style="stroke: rgb(0, 0, 0); stroke-width: 4px; fill: rgb(255, 255, 255);" cx="490.793" cy="204.895" rx="20.763" ry="20.763"/>
    <path style="fill: rgb(216, 216, 216); stroke: rgb(0, 0, 0); stroke-width: 4px;" d="M 314.228 101.406 L 348.799 64.149"/>
    <path style="fill: rgb(216, 216, 216); stroke: rgb(0, 0, 0); stroke-width: 4px;" d="M 408.451 71.95 L 379.084 61.854"/>
    <path style="fill: rgb(216, 216, 216); stroke: rgb(0, 0, 0); stroke-width: 4px;" d="M 444.242 65.985 L 476.821 39.37"/>
    <path style="fill: rgb(216, 216, 216); stroke: rgb(0, 0, 0); stroke-width: 4px;" d="M 402.944 135.273 L 418.087 99.022"/>
    <path style="fill: rgb(216, 216, 216); stroke: rgb(0, 0, 0); stroke-width: 4px;" d="M 445.159 91.681 L 483.244 115.542"/>
    <path style="fill: rgb(216, 216, 216); stroke: rgb(0, 0, 0); stroke-width: 4px;" d="M 518.118 103.612 L 563.086 84.798"/>
    <path style="fill: rgb(216, 216, 216); stroke: rgb(0, 0, 0); stroke-width: 4px;" d="M 429.099 196.301 L 487.375 133.437"/>
    <path style="fill: rgb(216, 216, 216); stroke: rgb(0, 0, 0); stroke-width: 4px;" d="M 493.799 184.371 L 512.153 138.025"/>
    <path style="fill: rgb(216, 216, 216); stroke: rgb(0, 0, 0); stroke-width: 4px;" d="M 554.827 199.055 L 522.248 128.849"/>
    <path style="fill: rgb(216, 216, 216); stroke: rgb(0, 0, 0); stroke-width: 4px;" d="M 584.194 137.108 L 580.064 99.481"/>
    <path style="fill: rgb(216, 216, 216); stroke: rgb(0, 0, 0); stroke-width: 4px;" d="M 633.674 50.127 L 601.632 84.338"/>
    <ellipse style="stroke: rgb(0, 0, 0); stroke-width: 2.94302px; fill: none;" cx="922.101" cy="119.448" rx="46.983" ry="93.966" transform="matrix(0.62496, 0.780657, -0.780657, 0.62496, 462.755521, -671.015601)"/>
    <ellipse style="stroke: rgb(0, 0, 0); stroke-width: 2.94302px; fill: none;" cx="922.101" cy="119.448" rx="46.983" ry="93.966" transform="matrix(0.491043, -0.871136, 0.871136, 0.491043, 388.792572, 868.652404)"/>
    <ellipse style="stroke: rgb(0, 0, 0); stroke-width: 2.94302px; fill: none;" cx="922.101" cy="119.448" rx="46.983" ry="93.966" transform="matrix(0.999816, 0.019167, -0.019167, 0.999816, 25.996923, -14.077181)"/>
  </g>
  <ellipse style="stroke: rgb(0, 0, 0); stroke-width: 2px; fill: rgb(216, 87, 87);" cx="668.844" cy="129.565" rx="8.142" ry="8.142"/>
  <ellipse style="stroke: rgb(0, 0, 0); stroke-width: 2px; fill: rgb(216, 87, 87);" cx="678.261" cy="118.433" rx="8.142" ry="8.142"/>
  <ellipse style="stroke: rgb(0, 0, 0); stroke-width: 2px; fill: rgb(107, 146, 224);" cx="659.202" cy="118.372" rx="8.142" ry="8.142"/>
  <ellipse style="stroke: rgb(0, 0, 0); fill: rgb(255, 255, 255); stroke-width: 2px;" cx="668.579" cy="124.623" rx="8.142" ry="8.142"/>
  <ellipse style="stroke: rgb(0, 0, 0); stroke-width: 2px; fill: rgb(107, 146, 224);" cx="668.697" cy="110.136" rx="8.142" ry="8.142"/>
  <ellipse style="stroke: rgb(0, 0, 0); fill: rgb(255, 255, 255); stroke-width: 2px;" cx="753.666" cy="137.044" rx="8.142" ry="8.142" bx:origin="-4.736 -0.672"/>
  <ellipse style="stroke: rgb(0, 0, 0); stroke-width: 2px; fill: rgb(216, 87, 87);" cx="648.381" cy="42.635" rx="8.142" ry="8.142" bx:origin="1.747 5.262"/>
  <ellipse style="stroke: rgb(0, 0, 0); stroke-width: 2px; fill: rgb(107, 146, 224);" cx="593.129" cy="166.628" rx="8.142" ry="8.142" bx:origin="5.187 -2.517"/>
</svg>