
<svg viewBox="0 0 800 240" xmlns="http://www.w3.org/2000/svg">
  <style>
    #histo1{
      animation: histoAnimation 3s alternate infinite;
    }
    #histo2{
      animation: histoAnimation 3.5s 1s alternate infinite;
    }
    #histo3{
      animation: histoAnimation 2s 3s alternate infinite;
    }
    #histo4{
      animation: histoAnimation 1.7s alternate infinite;
    }#histo5{
       animation: histoAnimation 4s alternate infinite;
     }#histo6{
        animation: histoAnimation 2.4s alternate infinite;
      }


    @keyframes histoAnimation {
      from{
        transform: translateY(0%) scale(100%, 100%);
      }
      to{
        transform: translateY(30%) scale(100%, 70%);
      }
    }
  </style>
  <g>
    <rect id="histo6" x="478.985" y="10.414" width="31.771" height="209.375" style="stroke: rgb(0, 0, 0); stroke-width: 2px; fill: rgb(157, 204, 126);"/>
    <rect id="histo5" x="447.029" y="77.632" width="31.771" height="143.985" style="stroke: rgb(0, 0, 0); stroke-width: 2px; fill: rgb(229, 141, 70);"/>
    <rect id="histo4" x="415.062" y="156.097" width="31.771" height="65.013" style="stroke: rgb(0, 0, 0); stroke-width: 2px; fill: rgb(229, 210, 70);"/>
    <rect id="histo3" x="383.228" y="140.258" width="31.771" height="80.073" style="stroke: rgb(0, 0, 0); stroke-width: 2px; fill: rgb(102, 170, 192);"/>
    <rect id="histo2" x="351.698" y="16.967" width="31.771" height="203.122" style="stroke: rgb(0, 0, 0); stroke-width: 2px; fill: rgb(157, 204, 126);"/>
    <rect id="histo1" x="319.723" y="76.519" width="31.771" height="143.985" style="stroke: rgb(0, 0, 0); stroke-width: 2px; fill: rgb(229, 141, 70);"/>
    <rect x="314.351" y="11.221" width="5.65" height="213.304" style="stroke: rgb(0, 0, 0); fill: rgb(2, 0, 0);"/>
    <rect x="314.351" y="33.313" width="7" height="205.996" style="stroke: rgb(0, 0, 0); fill: rgb(2, 0, 0);" transform="matrix(0.004833, 0.999988, -0.999988, 0.004833, 552.098328, -95.74688)"/>
    <path d="M 317.472 3.838 L 325.895 18.065 L 309.048 18.065 L 317.472 3.838 Z" style="stroke: rgb(0, 0, 0); fill: rgb(19, 0, 0);" />
    <path d="M 521.569 211.373 L 529.993 225.6 L 513.146 225.6 L 521.569 211.373 Z" style="stroke: rgb(0, 0, 0); fill: rgb(19, 0, 0);" transform="matrix(0.007542, 0.999972, -0.999972, 0.007542, 739.288818, -302.865234)" />
  </g>
  <g id="Certificate" transform="matrix(6.900998, 0, 0, 6.900998, 41.944065, 57.022209)" style="">
    <rect class="cls-1" height="13.7" rx="0.57" width="20" x="2" y="3.29" style="fill: rgb(255, 234, 187);"/>
    <path class="cls-2" d="M4.94,12.86H9.53a1.13,1.13,0,0,1,0,2.26H4.94a1.13,1.13,0,0,1,0-2.26" style="fill: rgb(249, 64, 96);"/>
    <path class="cls-3" d="M20.05,17h1.38a.57.57,0,0,0,.57-.57V3.86a.58.58,0,0,0-.57-.57H20.05Z" style="fill: rgb(247, 191, 117);"/>
    <path class="cls-2" d="M13.57,15.49l-2,3.39a.34.34,0,0,0,0,.35.37.37,0,0,0,.31.18h.87a.78.78,0,0,1,.64.37l.44.75a.35.35,0,0,0,.31.18.35.35,0,0,0,.3-.18l2.31-4Z" style="fill: rgb(249, 64, 96);"/>
    <path class="cls-2" d="M15.63,17.28s1.27,2.22,1.87,3.25a.37.37,0,0,0,.31.18.35.35,0,0,0,.3-.18c.15-.24.32-.53.45-.75a.77.77,0,0,1,.63-.37h.88a.35.35,0,0,0,.3-.18.36.36,0,0,0,0-.35l-2-3.39Z" style="fill: rgb(249, 64, 96);"/>
    <path class="cls-3" d="M18.51,14.79A2.52,2.52,0,1,1,16,12.28a2.52,2.52,0,0,1,2.52,2.51" style="fill: rgb(247, 191, 117);"/>
    <path class="cls-4" d="M17.89,14.79a1.9,1.9,0,1,1-1.9-1.9,1.9,1.9,0,0,1,1.9,1.9" style="fill: rgb(241, 115, 77);"/>
    <path class="cls-5" d="M16.47,14.29h-.95a.5.5,0,0,0-.5.5.5.5,0,0,0,.5.5h.95a.5.5,0,0,0,.5-.5A.51.51,0,0,0,16.47,14.29Z" style="fill: rgb(255, 234, 187); fill-rule: evenodd;"/>
    <path class="cls-6" d="M10.62,6.13h2.76a.5.5,0,0,0,.5-.5.51.51,0,0,0-.5-.5H10.62a.51.51,0,0,0-.5.5A.5.5,0,0,0,10.62,6.13Z" style="fill: rgb(241, 115, 77); fill-rule: evenodd;"/>
    <path class="cls-6" d="M8.18,8.06h7.64a.5.5,0,0,0,.5-.5.5.5,0,0,0-.5-.5H8.18a.5.5,0,0,0-.5.5A.5.5,0,0,0,8.18,8.06Z" style="fill: rgb(241, 115, 77); fill-rule: evenodd;"/>
    <path class="cls-6" d="M8.18,10h7.64a.5.5,0,0,0,.5-.5.5.5,0,0,0-.5-.5H8.18a.5.5,0,0,0-.5.5A.5.5,0,0,0,8.18,10Z" style="fill: rgb(241, 115, 77); fill-rule: evenodd;"/>
  </g>
  <g transform="matrix(1.153671, 0, 0, 1.153671, -76.08506, -26.449751)" style="">
    <path d="M 692.94 83.302 C 679.088 69.454 653.753 72.327 636.36 89.727 C 626.165 99.919 620.998 112.824 621.216 124.561 C 620.395 137.132 618.143 149.264 612.195 156.297 L 610.138 154.239 L 606.966 157.41 L 607.845 158.29 L 586.512 179.623 L 585.632 178.743 L 582.463 181.912 L 594.051 193.506 L 597.224 190.337 L 596.344 189.459 L 617.679 168.126 L 618.559 169.003 L 621.726 165.834 L 619.952 164.051 C 626.982 158.108 639.098 155.857 651.656 155.03 C 663.398 155.258 676.314 150.093 686.516 139.891 C 703.923 122.491 706.794 97.155 692.94 83.302 M 695.33 105.894 L 692.422 102.99 L 694.679 100.736 C 695.044 102.411 695.259 104.134 695.33 105.894 M 693.738 97.461 L 690.316 100.884 L 683.898 94.464 L 688.99 89.369 C 691.076 91.738 692.688 94.485 693.738 97.461 M 634.669 126.622 L 642.722 118.565 L 649.147 124.988 L 641.089 133.041 L 634.669 126.622 M 638.986 135.157 L 633.884 140.253 C 631.796 137.884 630.184 135.134 629.136 132.155 L 632.56 128.735 L 638.986 135.157 M 665.2 96.094 L 673.249 88.04 L 679.669 94.465 L 671.614 102.52 L 665.2 96.094 M 678.035 113.158 L 669.976 121.231 L 663.547 114.812 L 671.614 106.741 L 678.035 113.158 M 669.505 104.63 L 661.438 112.696 L 655.017 106.276 L 663.084 98.207 L 669.505 104.63 M 659.326 114.812 L 651.257 122.879 L 644.833 116.454 L 652.904 108.387 L 659.326 114.812 M 652.904 104.164 L 646.499 97.758 L 654.566 89.689 L 660.967 96.094 L 652.904 104.164 M 650.795 106.278 L 642.722 114.343 L 636.319 107.936 L 644.382 99.865 L 650.795 106.278 M 651.257 127.103 L 657.676 133.52 L 649.624 141.577 L 643.207 135.152 L 651.257 127.103 M 653.375 124.988 L 661.438 116.921 L 667.859 123.342 L 659.785 131.411 L 653.375 124.988 M 669.976 125.451 L 676.371 131.86 L 668.302 139.927 L 661.893 133.52 L 669.976 125.451 M 672.082 123.34 L 680.148 115.273 L 686.557 121.678 L 678.49 129.747 L 672.082 123.34 M 673.728 104.632 L 681.784 96.575 L 688.203 102.992 L 680.157 111.048 L 673.728 104.632 M 686.88 87.258 L 681.784 92.355 L 675.358 85.93 L 678.777 82.509 C 681.759 83.556 684.511 85.169 686.88 87.258 M 675.503 81.563 L 673.25 83.816 L 670.348 80.914 C 672.108 80.987 673.831 81.199 675.503 81.563 M 666.219 81.007 L 671.137 85.927 L 663.086 93.982 L 656.676 87.577 L 662.785 81.468 C 663.935 81.256 665.082 81.104 666.219 81.007 M 657.003 83.028 L 654.568 85.466 L 653.531 84.429 C 654.667 83.91 655.825 83.442 657.003 83.028 M 650.722 85.84 L 652.452 87.574 L 644.382 95.645 L 641.387 92.642 C 644.2 89.99 647.336 87.705 650.722 85.84 M 639.273 94.756 L 642.274 97.758 L 634.205 105.825 L 632.473 104.09 C 634.338 100.705 636.623 97.569 639.273 94.756 M 631.059 106.901 L 632.094 107.938 L 629.655 110.377 C 630.064 109.208 630.529 108.051 631.059 106.901 M 628.096 116.153 L 634.205 110.046 L 640.612 116.452 L 632.56 124.503 L 627.633 119.579 C 627.732 118.446 627.884 117.301 628.096 116.153 M 630.444 126.62 L 628.191 128.873 C 627.825 127.177 627.608 125.452 627.544 123.718 L 630.444 126.62 M 621.801 154.449 C 619.588 152.237 622.468 143.662 624.462 138.564 C 625.845 141.393 627.635 144.022 629.926 146.314 C 632.22 148.606 634.851 150.398 637.686 151.784 C 632.588 153.776 624.009 156.658 621.801 154.449 M 635.996 142.366 L 641.092 137.267 L 647.513 143.691 L 644.085 147.11 C 641.11 146.061 638.363 144.45 635.996 142.366 M 647.366 148.052 L 649.622 145.798 L 652.526 148.704 C 650.791 148.639 649.064 148.421 647.366 148.052 M 656.657 148.611 L 651.731 143.685 L 659.784 135.632 L 666.194 142.036 L 660.083 148.151 C 658.949 148.361 657.806 148.514 656.657 148.611 M 665.863 146.592 L 668.299 144.155 L 669.339 145.191 C 668.188 145.714 667.03 146.182 665.863 146.592 M 672.156 143.772 L 670.423 142.036 L 678.49 133.972 L 681.489 136.97 C 678.678 139.622 675.541 141.907 672.156 143.772 M 683.6 134.859 L 680.599 131.86 L 688.666 123.791 L 690.403 125.524 C 688.537 128.909 686.251 132.045 683.6 134.859 M 691.815 122.715 L 690.778 121.679 L 693.214 119.243 C 692.801 120.421 692.335 121.58 691.815 122.715 M 694.776 113.457 L 688.666 119.569 L 682.264 113.158 L 690.316 105.105 L 695.239 110.032 C 695.14 111.18 694.986 112.324 694.776 113.457" fill="#000000" style=""/>
    <path d="M 602.616 116.658 C 608.557 116.658 614.144 114.345 618.347 110.144 C 622.549 105.942 624.86 100.354 624.86 94.413 C 624.86 88.471 622.543 82.884 618.34 78.684 C 614.141 74.483 608.555 72.168 602.613 72.168 C 596.671 72.168 591.088 74.481 586.888 78.684 C 582.685 82.884 580.37 88.471 580.37 94.413 C 580.37 100.354 582.683 105.944 586.886 110.144 C 591.049 114.329 596.713 116.674 602.616 116.658 M 615.722 81.307 C 619.071 84.644 621.007 89.144 621.127 93.871 C 616.427 93.67 611.974 91.712 608.65 88.383 C 605.318 85.059 603.359 80.604 603.161 75.903 C 607.887 76.024 612.385 77.959 615.722 81.307 M 589.509 81.304 C 592.557 78.24 596.587 76.348 600.892 75.959 C 601.329 86.917 610.113 95.699 621.071 96.136 C 620.683 100.442 618.79 104.473 615.724 107.522 C 612.674 110.585 608.644 112.478 604.338 112.867 C 604.128 107.583 601.934 102.573 598.195 98.836 C 594.457 95.096 589.447 92.902 584.164 92.692 C 584.549 88.385 586.442 84.353 589.509 81.304 M 596.583 100.444 C 599.912 103.768 601.87 108.223 602.071 112.923 C 597.344 112.803 592.846 110.869 589.506 107.522 C 586.158 104.183 584.224 99.684 584.105 94.957 C 588.805 95.158 593.258 97.115 596.583 100.444" style="fill: rgb(210, 212, 45);"/>
  </g>
</svg>
