<?xml version="1.0" encoding="utf-8"?>
<svg viewBox="0 0 800 240" xmlns="http://www.w3.org/2000/svg">
  <path style="stroke: rgb(0, 0, 0); fill: rgb(152, 152, 150);" d="M 330.69 229.819 L 420.768 214.042 L 561.842 202.624 L 622.967 196.121 L 657.432 187.017 C 657.432 187.017 693.847 178.564 693.847 177.913 C 693.847 177.262 742.582 167.277 742.582 167.277 C 742.582 167.277 788.015 155.126 789.072 155.126 C 790.129 155.126 805.131 152.447 805.131 152.447 L 805.981 213.23 L 753.274 225.981 L 715.869 232.357 C 715.869 232.357 649.986 230.657 649.561 230.657 C 649.136 230.657 601.529 238.733 601.529 238.733 L 534.37 238.308 L 469.337 237.457 L 410.254 238.733 L 335.869 240.008"/>
  <path d="M 139.972 5.455 L 249.585 238.55 L 30.358 238.55 L 139.972 5.455 Z" style="stroke: rgb(0, 0, 0); stroke-width: 2px; fill: rgb(255, 255, 255);" />
  <path style="stroke: rgb(0, 0, 0); fill: rgb(127, 168, 101); stroke-width: 2px;" d="M 61.297 173.568 L 210.041 172.896 L 179.385 238.95 L 29.771 238.361 L 61.297 173.568 Z"/>
  <path d="M 241.094 48.341 L 334.516 238.643 L 147.672 238.643 L 241.094 48.341 Z" style="stroke: rgb(0, 0, 0); fill: rgb(255, 255, 255); stroke-width: 2px;"/>
  <path style="stroke: rgb(0, 0, 0); fill: rgb(127, 168, 101); stroke-width: 2px;" d="M 169.039 197.905 L 313.852 199.28 L 334.053 238.803 L 149.119 237.474 L 169.039 197.905 Z"/>
  <g>
    <path class="st0" d="M 497.617 132.261 C 490.072 132.658 482.924 135.439 477.762 140.601 L 474.186 144.175 C 480.144 144.175 485.703 146.955 489.277 151.721 C 491.66 154.501 495.234 156.089 499.206 156.089 C 506.751 156.089 512.708 149.735 511.517 142.189 C 510.325 136.232 504.368 131.865 497.617 132.261 Z" style="fill: none; stroke: rgb(0, 0, 0); stroke-linecap: round; stroke-linejoin: round; stroke-miterlimit: 10; stroke-width: 4px;"/>
    <circle class="st0" cx="436.063" cy="215.658" r="19.857" style="fill: none; stroke: rgb(0, 0, 0); stroke-linecap: round; stroke-linejoin: round; stroke-miterlimit: 10; stroke-width: 4px;"/>
    <circle class="st0" cx="515.489" cy="215.658" r="19.857" style="fill: none; stroke: rgb(0, 0, 0); stroke-linecap: round; stroke-linejoin: round; stroke-miterlimit: 10; stroke-width: 4px;"/>
    <path class="st0" d="M 515.489 175.945 L 495.632 175.945 L 482.924 163.237 C 478.953 159.266 472.201 158.869 467.833 162.84 L 453.933 174.754 C 450.756 177.535 451.154 182.3 454.728 184.683 L 479.746 199.774 L 471.804 223.601" style="fill: none; stroke: rgb(0, 0, 0); stroke-linecap: round; stroke-linejoin: round; stroke-miterlimit: 10; stroke-width: 4px;"/>
    <line class="st0" x1="485.703" y1="166.018" x2="460.685" y2="187.859" style="fill: none; stroke: rgb(0, 0, 0); stroke-linecap: round; stroke-linejoin: round; stroke-miterlimit: 10; stroke-width: 4px;"/>
    <circle cx="436.063" cy="215.658" r="3.971" style="stroke-width: 4px;"/>
    <circle cx="515.489" cy="215.658" r="3.971" style="stroke-width: 4px;"/>
    <rect x="408.729" y="172.963" width="38.431" height="18.504" style="stroke: rgb(0, 0, 0); stroke-width: 3px; stroke-linejoin: round; fill: none;"/>
    <rect x="424.742" y="177.233" width="9.608" height="4.626" style="stroke: rgb(0, 0, 0); stroke-width: 2px; stroke-linejoin: bevel; fill: none;"/>
  </g>
  <g transform="matrix(0.119309, 0, 0, 0.119309, 80.493629, 128.846176)" style="">
    <path style="fill: rgb(217, 71, 0); stroke: rgb(0, 0, 0); stroke-width: 16.7632px;" d="M 494.375 73.477 C 487.313 73.477 480.144 71.973 473.332 68.797 C 473.288 68.775 473.242 68.755 473.198 68.733 L 144.009 -85.955 C 135.671 -89.843 132.064 -99.754 135.952 -108.092 C 139.841 -116.431 149.751 -120.037 158.089 -116.15 L 487.469 38.627 C 495.783 42.467 505.677 38.848 509.551 30.544 C 513.44 22.206 523.349 18.603 531.689 22.487 C 540.027 26.376 543.634 36.287 539.746 44.625 C 531.274 62.788 513.206 73.477 494.375 73.477 Z" transform="matrix(0.927785, -0.373114, 0.373114, 0.927785, 32.650387, 124.458937)"/>
    <path style="fill: rgb(255, 217, 179); stroke: rgb(0, 0, 0); stroke-width: 16.7632px;" d="M 382.956 -350.568 C 373.25 -350.568 363.793 -352.682 354.848 -356.855 C 321.55 -372.382 307.091 -412.106 322.619 -445.402 C 334.113 -470.053 358.426 -483.918 383.056 -483.918 C 409.573 -483.918 435.558 -467.673 445.619 -440.033 C 461.501 -396.404 429.002 -350.568 382.956 -350.568 Z" transform="matrix(0.927785, -0.373114, 0.373114, 0.927785, 183.340253, 112.786284)"/>
    <g transform="matrix(0.927786, -0.373114, 0.373114, 0.927786, -30.652285, -322.739441)">
      <path style="fill: rgb(115, 192, 230); stroke: rgb(0, 0, 0); stroke-width: 16.7632px;" d="M237.118,339.48l-27.159,58.242l60.406,28.385l35.884-77.215 c5.327-11.447,3.761-24.699-4.088-34.589l-50.014-63.024c0,0,0.801-0.641,2.142-1.714c6.934-5.546,28.323-22.653,28.323-22.653 c1.053,0.861,96.057,45.505,96.057,45.505c16.801,7.835,36.607,0.33,44.274-16.115c7.75-16.622,0.508-36.524-16.116-44.273 l-47.706-22.246l-27.555-75.708c-6.201-17.038-25.332-26.381-42.873-19.997c-5.336,2.072-51.601,39.323-80.046,62.173 c0,0-8.533,6.855-17.068,13.71c-6.047,4.726-12.094,9.452-12.094,9.452c-1.111,0.868-8.371,6.08-16.6,12.601 c-7.114,5.646-11.578,13.672-12.569,22.599c-0.967,8.706,1.503,17.234,6.951,24.012L237.118,339.48z"/>
      <path style="fill: rgb(115, 192, 230); stroke: rgb(0, 0, 0); stroke-width: 16.7632px;" d="M 195.914 482.721 C 193.556 482.721 191.162 482.218 188.884 481.156 C 180.546 477.268 176.939 467.357 180.827 459.019 L 208.986 398.63 C 212.874 390.292 222.786 386.686 231.123 390.572 C 239.461 394.46 243.068 404.371 239.18 412.709 L 211.021 473.098 C 208.197 479.159 202.188 482.721 195.914 482.721 Z" transform="matrix(0.645489, -0.76377, 0.76377, 0.645489, -258.451645, 314.913189)"/>
    </g>
    <path style="fill: rgb(207, 219, 230); stroke: rgb(0, 0, 0); stroke-width: 16.7632px;" d="M 495.202 -216.436 C 495.135 -216.158 484.476 -167.51 484.476 -167.51 C 444.459 -136.506 303.081 -26.963 300.438 -24.914 C 292.542 -18.798 283.154 -24.474 279.471 -37.594 C 275.788 -50.719 279.204 -66.314 287.102 -72.435 C 468.402 -212.909 509.043 -243.869 510.326 -244.262 C 503.71 -238.357 498.136 -228.513 495.202 -216.436 Z" transform="matrix(0.927785, -0.373114, 0.373114, 0.927785, 78.221464, 137.4353)"/>
    <g transform="matrix(0.927786, -0.373114, 0.373114, 0.927786, -30.652285, -322.739441)"/>
    <g transform="matrix(0.927786, -0.373114, 0.373114, 0.927786, -30.652285, -322.739441)"/>
    <g transform="matrix(0.927786, -0.373114, 0.373114, 0.927786, -30.652285, -322.739441)"/>
    <g transform="matrix(0.927786, -0.373114, 0.373114, 0.927786, -30.652285, -322.739441)"/>
    <g transform="matrix(0.927786, -0.373114, 0.373114, 0.927786, -30.652285, -322.739441)"/>
    <g transform="matrix(0.927786, -0.373114, 0.373114, 0.927786, -30.652285, -322.739441)"/>
    <g transform="matrix(0.927786, -0.373114, 0.373114, 0.927786, -30.652285, -322.739441)"/>
    <g transform="matrix(0.927786, -0.373114, 0.373114, 0.927786, -30.652285, -322.739441)"/>
    <g transform="matrix(0.927786, -0.373114, 0.373114, 0.927786, -30.652285, -322.739441)"/>
    <g transform="matrix(0.927786, -0.373114, 0.373114, 0.927786, -30.652285, -322.739441)"/>
    <g transform="matrix(0.927786, -0.373114, 0.373114, 0.927786, -30.652285, -322.739441)"/>
    <g transform="matrix(0.927786, -0.373114, 0.373114, 0.927786, -30.652285, -322.739441)"/>
    <g transform="matrix(0.927786, -0.373114, 0.373114, 0.927786, -30.652285, -322.739441)"/>
    <g transform="matrix(0.927786, -0.373114, 0.373114, 0.927786, -30.652285, -322.739441)"/>
    <g transform="matrix(0.927786, -0.373114, 0.373114, 0.927786, -30.652285, -322.739441)"/>
  </g>
  <path style="stroke: rgb(0, 0, 0); stroke-width: 3px; fill: none;" d="M 82.488 127.193 C 85.941 127.193 88.32 131.227 91.251 132.896 C 96.521 135.897 107.237 131.395 111.277 129.094 C 113.374 127.9 116.324 131.018 117.953 131.945 C 119.369 132.752 125.095 133.194 127.131 132.42 C 128.546 131.883 130.895 129.802 132.973 128.619 C 137.796 125.872 143.772 131.291 149.244 130.044 C 155.744 128.564 160.83 126.243 167.602 126.243 C 168.706 126.243 174.349 127.111 175.112 126.243 C 176.265 124.93 177.061 123.945 178.867 122.916 C 183.166 120.468 191.763 125.292 196.39 125.292"/>
  <g transform="matrix(1, 0, 0, 1, -3.464983, -22.522436)">
    <rect x="587.025" y="180.457" width="9.148" height="36.592" style="stroke-width: 3px; stroke: rgb(0, 0, 0); fill: rgb(87, 40, 19);"/>
    <path d="M 590.868 128.462 L 613.897 185.398 L 567.839 185.398 L 590.868 128.462 Z" style="stroke: rgb(0, 0, 0); stroke-width: 3px; fill: rgb(91, 151, 100);"/>
    <path d="M 590.77 95.328 L 613.799 156.601 L 567.741 156.601 L 590.77 95.328 Z" style="stroke: rgb(0, 0, 0); stroke-width: 3px; fill: rgb(91, 151, 100);"/>
  </g>
  <g transform="matrix(1, 0, 0, 1, 164.599045, -62.591309)">
    <rect x="587.025" y="180.457" width="9.148" height="36.592" style="stroke-width: 3px; stroke: rgb(0, 0, 0); fill: rgb(87, 40, 19);"/>
    <path d="M 590.868 128.462 L 613.897 185.398 L 567.839 185.398 L 590.868 128.462 Z" style="stroke: rgb(0, 0, 0); stroke-width: 3px; fill: rgb(91, 151, 100);" />
    <path d="M 590.77 95.328 L 613.799 156.601 L 567.741 156.601 L 590.77 95.328 Z" style="stroke: rgb(0, 0, 0); stroke-width: 3px; fill: rgb(91, 151, 100);"/>
  </g>
  <g transform="matrix(1, 0, 0, 1, -276.032379, 10.173513)">
    <rect x="587.025" y="180.457" width="9.148" height="36.592" style="stroke-width: 3px; stroke: rgb(0, 0, 0); fill: rgb(87, 40, 19);"/>
    <path d="M 590.868 128.462 L 613.897 185.398 L 567.839 185.398 L 590.868 128.462 Z" style="stroke: rgb(0, 0, 0); stroke-width: 3px; fill: rgb(91, 151, 100);"/>
    <path d="M 590.77 95.328 L 613.799 156.601 L 567.741 156.601 L 590.77 95.328 Z" style="stroke: rgb(0, 0, 0); stroke-width: 3px; fill: rgb(91, 151, 100);"/>
  </g>
  <g transform="matrix(1, 0, 0, 1, -213.662552, -18.123928)">
    <rect x="587.025" y="180.457" width="9.148" height="36.592" style="stroke-width: 3px; stroke: rgb(0, 0, 0); fill: rgb(87, 40, 19);"/>
    <path d="M 590.868 128.462 L 613.897 185.398 L 567.839 185.398 L 590.868 128.462 Z" style="stroke: rgb(0, 0, 0); stroke-width: 3px; fill: rgb(91, 151, 100);"/>
    <path d="M 590.77 95.328 L 613.799 156.601 L 567.741 156.601 L 590.77 95.328 Z" style="stroke: rgb(0, 0, 0); stroke-width: 3px; fill: rgb(91, 151, 100);"/>
  </g>
  <g transform="matrix(1, 0, 0, 1, 97.031815, -48.731354)">
    <rect x="587.025" y="180.457" width="9.148" height="36.592" style="stroke-width: 3px; stroke: rgb(0, 0, 0); fill: rgb(87, 40, 19);"/>
    <path d="M 590.868 128.462 L 613.897 185.398 L 567.839 185.398 L 590.868 128.462 Z" style="stroke: rgb(0, 0, 0); stroke-width: 3px; fill: rgb(91, 151, 100);"/>
    <path d="M 590.77 95.328 L 613.799 156.601 L 567.741 156.601 L 590.77 95.328 Z" style="stroke: rgb(0, 0, 0); stroke-width: 3px; fill: rgb(91, 151, 100);" />
  </g>
  <g transform="matrix(1, 0, 0, 1, 46.211906, -40.068874)">
    <rect x="587.025" y="180.457" width="9.148" height="36.592" style="stroke-width: 3px; stroke: rgb(0, 0, 0); fill: rgb(87, 40, 19);"/>
    <path d="M 590.868 128.462 L 613.897 185.398 L 567.839 185.398 L 590.868 128.462 Z" style="stroke: rgb(0, 0, 0); stroke-width: 3px; fill: rgb(91, 151, 100);"/>
    <path d="M 590.77 95.328 L 613.799 156.601 L 567.741 156.601 L 590.77 95.328 Z" style="stroke: rgb(0, 0, 0); stroke-width: 3px; fill: rgb(91, 151, 100);" />
  </g>
</svg>
