<?xml version="1.0" encoding="utf-8"?>
<svg viewBox="0 0 800 240" xmlns="http://www.w3.org/2000/svg">
  <g>
    <rect x="478.985" y="10.414" width="31.771" height="209.375" style="stroke: rgb(0, 0, 0); stroke-width: 2px; fill: rgb(157, 204, 126);"/>
    <rect x="447.029" y="77.632" width="31.771" height="143.985" style="stroke: rgb(0, 0, 0); stroke-width: 2px; fill: rgb(229, 141, 70);"/>
    <rect x="415.062" y="156.097" width="31.771" height="65.013" style="stroke: rgb(0, 0, 0); stroke-width: 2px; fill: rgb(229, 210, 70);"/>
    <rect x="383.228" y="140.258" width="31.771" height="80.073" style="stroke: rgb(0, 0, 0); stroke-width: 2px; fill: rgb(102, 170, 192);"/>
    <rect x="351.698" y="16.967" width="31.771" height="203.122" style="stroke: rgb(0, 0, 0); stroke-width: 2px; fill: rgb(157, 204, 126);"/>
    <rect x="319.723" y="76.519" width="31.771" height="143.985" style="stroke: rgb(0, 0, 0); stroke-width: 2px; fill: rgb(229, 141, 70);"/>
    <rect x="314.351" y="11.221" width="5.65" height="213.304" style="stroke: rgb(0, 0, 0); fill: rgb(2, 0, 0);"/>
    <rect x="314.351" y="33.313" width="5.138" height="205.996" style="stroke: rgb(0, 0, 0); fill: rgb(2, 0, 0);" transform="matrix(0.004833, 0.999988, -0.999988, 0.004833, 552.098328, -95.74688)"/>
    <path d="M 317.472 3.838 L 325.895 18.065 L 309.048 18.065 L 317.472 3.838 Z" style="stroke: rgb(0, 0, 0); fill: rgb(19, 0, 0);"/>
    <path d="M 521.569 211.373 L 529.993 225.6 L 513.146 225.6 L 521.569 211.373 Z" style="stroke: rgb(0, 0, 0); fill: rgb(19, 0, 0);" transform="matrix(0.007542, 0.999972, -0.999972, 0.007542, 739.288818, -302.865234)" />
  </g>
  <g style="" transform="">
    <g id="Layer_2" data-name="Layer 2" transform="matrix(3.998072, 0, 0, 3.998072, 112.586021, 88.523857)" style="">
      <g id="Layer_1-2" data-name="Layer 1">
        <path d="M15.56,4.12a.56.56,0,0,0,.56-.56v-3A.56.56,0,0,0,15.56,0H.56A.56.56,0,0,0,0,.56v3a.56.56,0,0,0,.56.56H1.5V6H.56A.56.56,0,0,0,0,6.56v3a.56.56,0,0,0,.56.56H1.5V12H.56a.56.56,0,0,0-.56.56v3a.56.56,0,0,0,.56.56h4a.56.56,0,1,0,0-1.12H1.12V13.12H4.56a.56.56,0,1,0,0-1.12H2.62V10.12H6.56A.56.56,0,1,0,6.56,9H1.12V7.12H15V9h-.44a.56.56,0,1,0,0,1.12h1a.56.56,0,0,0,.56-.56v-3A.56.56,0,0,0,15.56,6h-.94V4.12Zm-14.44-3H15V3H1.12ZM13.5,6H2.62V4.12H13.5ZM14,11.89a3.31,3.31,0,0,0-3.23-2.53,3.36,3.36,0,0,0-3.35,3.17,1.77,1.77,0,1,0-.13,3.53H14A2.09,2.09,0,0,0,14,11.89ZM14,15.06H7.33a.77.77,0,1,1,0-1.53.77.77,0,0,1,.38.1.5.5,0,0,0,.5,0,.52.52,0,0,0,.25-.44v-.49a2.35,2.35,0,0,1,2.35-2.35,2.31,2.31,0,0,1,2.25,1.75A2.09,2.09,0,0,0,11.89,14a.51.51,0,0,0,.5.5.5.5,0,0,0,.5-.5A1.09,1.09,0,0,1,14,12.9,1,1,0,0,1,15.06,14,1.09,1.09,0,0,1,14,15.06Z"/>
      </g>
    </g>
    <g transform="matrix(0.878895, 0, 0, 0.878895, 219.615997, 105.799492)" style="">
      <g>
        <path d="M44.398,13.468L28.2,3.717c-1.005-0.604-2.304-0.624-3.328-0.046c-1.038,0.587-1.669,1.691-1.669,2.883v13.228 l-2.722,0.851c-0.513,1.987-1.601,3.746-3.076,5.087c3.354,2.053,5.769,5.547,6.32,9.672c0.151,1.14,0.151,2.36-0.001,3.545 l-0.024,0.18l0.823,0.496c0.517,0.312,1.106,0.476,1.709,0.476c0.336,0,0.666-0.052,0.988-0.151c0,0,10.465-3.239,13.94-4.357 c3.228-1.037,4.846-3.333,4.846-4.9V16.306C46.006,15.15,45.389,14.062,44.398,13.468z M41.928,29.309l-14.646-8.82V7.924 l14.646,8.818V29.309z"/>
        <circle cx="10.52" cy="18.04" r="7.312"/>
        <path d="M10.503,26.817C4.015,26.853,0,32.611,0,37.912c0,4.471,4.731,4.845,4.731,4.845H16.33c0,0,4.704-0.375,4.704-4.845 C21.034,32.611,17.085,26.853,10.503,26.817z"/>
        <path d="M10.503,26.817C10.596,26.817,10.503,26.817,10.503,26.817L10.503,26.817z"/>
      </g>
    </g>
    <g transform="matrix(0.878895, 0, 0, 0.878895, 219.615997, 105.799492)" style=""/>
    <g transform="matrix(0.878895, 0, 0, 0.878895, 219.615997, 105.799492)" style=""/>
    <g transform="matrix(0.878895, 0, 0, 0.878895, 219.615997, 105.799492)" style=""/>
    <g transform="matrix(0.878895, 0, 0, 0.878895, 219.615997, 105.799492)" style=""/>
    <g transform="matrix(0.878895, 0, 0, 0.878895, 219.615997, 105.799492)" style=""/>
    <g transform="matrix(0.878895, 0, 0, 0.878895, 219.615997, 105.799492)" style=""/>
    <g transform="matrix(0.878895, 0, 0, 0.878895, 219.615997, 105.799492)" style=""/>
    <g transform="matrix(0.878895, 0, 0, 0.878895, 219.615997, 105.799492)" style=""/>
    <g transform="matrix(0.878895, 0, 0, 0.878895, 219.615997, 105.799492)" style=""/>
    <g transform="matrix(0.878895, 0, 0, 0.878895, 219.615997, 105.799492)" style=""/>
    <g transform="matrix(0.878895, 0, 0, 0.878895, 219.615997, 105.799492)" style=""/>
    <g transform="matrix(0.878895, 0, 0, 0.878895, 219.615997, 105.799492)" style=""/>
    <g transform="matrix(0.878895, 0, 0, 0.878895, 219.615997, 105.799492)" style=""/>
    <g transform="matrix(0.878895, 0, 0, 0.878895, 219.615997, 105.799492)" style=""/>
    <g transform="matrix(0.878895, 0, 0, 0.878895, 219.615997, 105.799492)" style=""/>
    <g transform="matrix(0.737376, 0, 0, 0.737376, 128.136307, 19.219923)" style="">
      <g>
        <path d="M44.398,13.468L28.2,3.717c-1.005-0.604-2.304-0.624-3.328-0.046c-1.038,0.587-1.669,1.691-1.669,2.883v13.228 l-2.722,0.851c-0.513,1.987-1.601,3.746-3.076,5.087c3.354,2.053,5.769,5.547,6.32,9.672c0.151,1.14,0.151,2.36-0.001,3.545 l-0.024,0.18l0.823,0.496c0.517,0.312,1.106,0.476,1.709,0.476c0.336,0,0.666-0.052,0.988-0.151c0,0,10.465-3.239,13.94-4.357 c3.228-1.037,4.846-3.333,4.846-4.9V16.306C46.006,15.15,45.389,14.062,44.398,13.468z M41.928,29.309l-14.646-8.82V7.924 l14.646,8.818V29.309z"/>
        <circle cx="10.52" cy="18.04" r="7.312"/>
        <path d="M10.503,26.817C4.015,26.853,0,32.611,0,37.912c0,4.471,4.731,4.845,4.731,4.845H16.33c0,0,4.704-0.375,4.704-4.845 C21.034,32.611,17.085,26.853,10.503,26.817z"/>
        <path d="M10.503,26.817C10.596,26.817,10.503,26.817,10.503,26.817L10.503,26.817z"/>
      </g>
    </g>
    <g transform="matrix(0.737376, 0, 0, 0.737376, 128.136307, 19.219923)" style=""/>
    <g transform="matrix(0.737376, 0, 0, 0.737376, 128.136307, 19.219923)" style=""/>
    <g transform="matrix(0.737376, 0, 0, 0.737376, 128.136307, 19.219923)" style=""/>
    <g transform="matrix(0.737376, 0, 0, 0.737376, 128.136307, 19.219923)" style=""/>
    <g transform="matrix(0.737376, 0, 0, 0.737376, 128.136307, 19.219923)" style=""/>
    <g transform="matrix(0.737376, 0, 0, 0.737376, 128.136307, 19.219923)" style=""/>
    <g transform="matrix(0.737376, 0, 0, 0.737376, 128.136307, 19.219923)" style=""/>
    <g transform="matrix(0.737376, 0, 0, 0.737376, 128.136307, 19.219923)" style=""/>
    <g transform="matrix(0.737376, 0, 0, 0.737376, 128.136307, 19.219923)" style=""/>
    <g transform="matrix(0.737376, 0, 0, 0.737376, 128.136307, 19.219923)" style=""/>
    <g transform="matrix(0.737376, 0, 0, 0.737376, 128.136307, 19.219923)" style=""/>
    <g transform="matrix(0.737376, 0, 0, 0.737376, 128.136307, 19.219923)" style=""/>
    <g transform="matrix(0.737376, 0, 0, 0.737376, 128.136307, 19.219923)" style=""/>
    <g transform="matrix(0.737376, 0, 0, 0.737376, 128.136307, 19.219923)" style=""/>
    <g transform="matrix(0.737376, 0, 0, 0.737376, 128.136307, 19.219923)" style=""/>
    <g transform="matrix(0.878895, 0, 0, 0.878895, 126.410172, 179.443588)" style="">
      <g>
        <path d="M44.398,13.468L28.2,3.717c-1.005-0.604-2.304-0.624-3.328-0.046c-1.038,0.587-1.669,1.691-1.669,2.883v13.228 l-2.722,0.851c-0.513,1.987-1.601,3.746-3.076,5.087c3.354,2.053,5.769,5.547,6.32,9.672c0.151,1.14,0.151,2.36-0.001,3.545 l-0.024,0.18l0.823,0.496c0.517,0.312,1.106,0.476,1.709,0.476c0.336,0,0.666-0.052,0.988-0.151c0,0,10.465-3.239,13.94-4.357 c3.228-1.037,4.846-3.333,4.846-4.9V16.306C46.006,15.15,45.389,14.062,44.398,13.468z M41.928,29.309l-14.646-8.82V7.924 l14.646,8.818V29.309z"/>
        <circle cx="10.52" cy="18.04" r="7.312"/>
        <path d="M10.503,26.817C4.015,26.853,0,32.611,0,37.912c0,4.471,4.731,4.845,4.731,4.845H16.33c0,0,4.704-0.375,4.704-4.845 C21.034,32.611,17.085,26.853,10.503,26.817z"/>
        <path d="M10.503,26.817C10.596,26.817,10.503,26.817,10.503,26.817L10.503,26.817z"/>
      </g>
    </g>
    <g transform="matrix(0.878895, 0, 0, 0.878895, 126.410172, 179.443588)" style=""/>
    <g transform="matrix(0.878895, 0, 0, 0.878895, 126.410172, 179.443588)" style=""/>
    <g transform="matrix(0.878895, 0, 0, 0.878895, 126.410172, 179.443588)" style=""/>
    <g transform="matrix(0.878895, 0, 0, 0.878895, 126.410172, 179.443588)" style=""/>
    <g transform="matrix(0.878895, 0, 0, 0.878895, 126.410172, 179.443588)" style=""/>
    <g transform="matrix(0.878895, 0, 0, 0.878895, 126.410172, 179.443588)" style=""/>
    <g transform="matrix(0.878895, 0, 0, 0.878895, 126.410172, 179.443588)" style=""/>
    <g transform="matrix(0.878895, 0, 0, 0.878895, 126.410172, 179.443588)" style=""/>
    <g transform="matrix(0.878895, 0, 0, 0.878895, 126.410172, 179.443588)" style=""/>
    <g transform="matrix(0.878895, 0, 0, 0.878895, 126.410172, 179.443588)" style=""/>
    <g transform="matrix(0.878895, 0, 0, 0.878895, 126.410172, 179.443588)" style=""/>
    <g transform="matrix(0.878895, 0, 0, 0.878895, 126.410172, 179.443588)" style=""/>
    <g transform="matrix(0.878895, 0, 0, 0.878895, 126.410172, 179.443588)" style=""/>
    <g transform="matrix(0.878895, 0, 0, 0.878895, 126.410172, 179.443588)" style=""/>
    <g transform="matrix(0.878895, 0, 0, 0.878895, 126.410172, 179.443588)" style=""/>
    <g transform="matrix(0.878894, 0, 0, 0.878894, 30.32766, 96.018677)" style="">
      <g>
        <path d="M44.398,13.468L28.2,3.717c-1.005-0.604-2.304-0.624-3.328-0.046c-1.038,0.587-1.669,1.691-1.669,2.883v13.228 l-2.722,0.851c-0.513,1.987-1.601,3.746-3.076,5.087c3.354,2.053,5.769,5.547,6.32,9.672c0.151,1.14,0.151,2.36-0.001,3.545 l-0.024,0.18l0.823,0.496c0.517,0.312,1.106,0.476,1.709,0.476c0.336,0,0.666-0.052,0.988-0.151c0,0,10.465-3.239,13.94-4.357 c3.228-1.037,4.846-3.333,4.846-4.9V16.306C46.006,15.15,45.389,14.062,44.398,13.468z M41.928,29.309l-14.646-8.82V7.924 l14.646,8.818V29.309z"/>
        <circle cx="10.52" cy="18.04" r="7.312"/>
        <path d="M10.503,26.817C4.015,26.853,0,32.611,0,37.912c0,4.471,4.731,4.845,4.731,4.845H16.33c0,0,4.704-0.375,4.704-4.845 C21.034,32.611,17.085,26.853,10.503,26.817z"/>
        <path d="M10.503,26.817C10.596,26.817,10.503,26.817,10.503,26.817L10.503,26.817z"/>
      </g>
    </g>
    <g transform="matrix(0.878894, 0, 0, 0.878894, 30.32766, 96.018677)" style=""/>
    <g transform="matrix(0.878894, 0, 0, 0.878894, 30.32766, 96.018677)" style=""/>
    <g transform="matrix(0.878894, 0, 0, 0.878894, 30.32766, 96.018677)" style=""/>
    <g transform="matrix(0.878894, 0, 0, 0.878894, 30.32766, 96.018677)" style=""/>
    <g transform="matrix(0.878894, 0, 0, 0.878894, 30.32766, 96.018677)" style=""/>
    <g transform="matrix(0.878894, 0, 0, 0.878894, 30.32766, 96.018677)" style=""/>
    <g transform="matrix(0.878894, 0, 0, 0.878894, 30.32766, 96.018677)" style=""/>
    <g transform="matrix(0.878894, 0, 0, 0.878894, 30.32766, 96.018677)" style=""/>
    <g transform="matrix(0.878894, 0, 0, 0.878894, 30.32766, 96.018677)" style=""/>
    <g transform="matrix(0.878894, 0, 0, 0.878894, 30.32766, 96.018677)" style=""/>
    <g transform="matrix(0.878894, 0, 0, 0.878894, 30.32766, 96.018677)" style=""/>
    <g transform="matrix(0.878894, 0, 0, 0.878894, 30.32766, 96.018677)" style=""/>
    <g transform="matrix(0.878894, 0, 0, 0.878894, 30.32766, 96.018677)" style=""/>
    <g transform="matrix(0.878894, 0, 0, 0.878894, 30.32766, 96.018677)" style=""/>
    <g transform="matrix(0.878894, 0, 0, 0.878894, 30.32766, 96.018677)" style=""/>
  </g>
  <path style="fill: rgb(216, 216, 216); stroke: rgb(0, 0, 0); stroke-width: 5px;" d="M 67.816 123.27 L 113.91 123.713"/>
  <path style="fill: rgb(216, 216, 216); stroke: rgb(0, 0, 0); stroke-width: 5px;" d="M 137.479 90.479 L 137.521 48.245"/>
  <path style="fill: rgb(216, 216, 216); stroke: rgb(0, 0, 0); stroke-width: 5px;" d="M 174.37 123.512 L 225.527 136.252"/>
  <path style="fill: rgb(216, 216, 216); stroke: rgb(0, 0, 0); stroke-width: 5px;" d="M 133.421 192.916 L 139.649 150.279" transform="matrix(-1, 0, 0, -1, 273.070007, 343.195007)"/>
  <g transform="matrix(1, 0, 0, 1, -62.559708, -8.18345)">
    <rect x="184.209" y="170.108" width="26.448" height="19.13" style="stroke-width: 4px; stroke-linejoin: round; fill: rgb(193, 72, 72); stroke: rgb(0, 0, 0);"/>
    <path d="M 103.114 117.124 L 106.346 123.994 L 99.883 123.994 L 103.114 117.124 Z" style="stroke: rgb(0, 0, 0);" transform="matrix(0.487122, 0.873334, -0.873334, 0.487122, 245.808762, 41.819519)"/>
    <rect x="188.88" y="175.084" width="8.308" style="stroke: rgb(255, 255, 255); fill: rgb(255, 255, 255); stroke-linejoin: round; stroke-width: 3px;" height="0.284"/>
    <rect x="188.795" y="179.563" width="13.811" style="stroke: rgb(255, 255, 255); fill: rgb(255, 255, 255); stroke-linejoin: round; stroke-width: 3px;" height="0.048"/>
    <g transform="matrix(0.637687, 0, 0, 0.637687, 630.592285, 51.885086)" style="">
      <rect x="32.603" y="171" width="246.907" height="27.908" style="stroke: rgb(0, 0, 0); stroke-linecap: round; stroke-miterlimit: 42; stroke-linejoin: round; fill: rgb(131, 157, 223); stroke-width: 5px;"/>
      <rect x="32.675" y="37.18" width="246.561" height="134.435" style="stroke: rgb(0, 0, 0); stroke-width: 5px; stroke-linecap: round; stroke-miterlimit: 16; stroke-linejoin: bevel; fill: rgba(0, 0, 0, 0.76);"/>
      <rect x="70.79" y="224.988" width="164.699" height="4.097" style="fill: rgb(216, 216, 216); stroke: rgb(0, 0, 0); stroke-width: 6px; stroke-linejoin: round;"/>
      <rect x="54.067" y="63.652" width="76.507" height="4.896" style="stroke-linejoin: round; stroke: rgb(0, 0, 0); fill: rgb(33, 166, 48); paint-order: fill;"/>
      <rect x="145.556" y="63.51" width="76.507" height="4.896" style="stroke-linejoin: round; stroke: rgb(0, 0, 0); fill: rgb(33, 166, 48); paint-order: fill;"/>
      <rect x="54.81" y="86.173" width="202.825" height="4.896" style="stroke-linejoin: round; stroke: rgb(0, 0, 0); fill: rgb(33, 166, 48); paint-order: fill;"/>
      <rect x="128.153" y="110.685" width="76.507" height="4.896" style="stroke-linejoin: round; stroke: rgb(0, 0, 0); fill: rgb(33, 166, 48); paint-order: fill;"/>
      <rect x="56.492" y="134.486" width="76.507" height="4.896" style="stroke-linejoin: round; stroke: rgb(0, 0, 0); fill: rgb(33, 166, 48); paint-order: fill;"/>
      <rect x="55.615" y="110.62" width="44.935" height="4.896" style="stroke-linejoin: round; stroke: rgb(0, 0, 0); fill: rgb(33, 166, 48); paint-order: fill;"/>
      <rect x="56.301" y="155.955" width="199.086" height="4.896" style="stroke-linejoin: round; stroke: rgb(0, 0, 0); fill: rgb(33, 166, 48); paint-order: fill;"/>
      <path style="stroke: rgb(0, 0, 0); fill: rgb(190, 213, 241); stroke-width: 5px;" d="M 100.288 222.94 C 103.68 227.35 137.012 209.147 129.786 199.753 L 173.46 199.587 C 166.956 207.536 195.973 226.262 199.026 222.53"/>
    </g>
  </g>
</svg>
